<svg width="127" height="38" viewBox="0 0 127 38" fill="none" xmlns="http://www.w3.org/2000/svg">
<path d="M11.84 22.936C16.512 22.936 19.584 19.768 19.584 15.256C19.584 10.68 16.544 7.608 11.84 7.608H2.592V31H6.688V22.936H11.84ZM11.04 11.256C13.76 11.256 15.296 12.664 15.296 15.224C15.296 17.784 13.792 19.288 10.976 19.288H6.688V11.256H11.04ZM28.6615 21.784V31H32.7575V21.784L40.6295 7.608H36.1815L31.6055 16.12C31.1895 16.888 31.0615 17.272 30.7735 17.848C30.5175 17.272 30.2935 16.76 29.9415 16.12L25.3335 7.608H20.7575L28.6615 21.784ZM47.6255 31V22.264H52.6495L56.6175 31H61.0975L56.6495 21.4C59.4015 20.28 60.8735 18.04 60.8735 14.904C60.8735 10.296 57.7695 7.608 52.4575 7.608H43.5295V31H47.6255ZM47.6255 11.256H52.4575C55.0495 11.256 56.5855 12.568 56.5855 14.904C56.5855 17.272 55.0495 18.648 52.4575 18.648H47.6255V11.256ZM68.935 31V22.616C68.935 19.704 68.903 17.496 68.679 16.088L74.599 31H78.375L84.327 16.056C84.103 17.72 84.103 19.096 84.103 23.8V31H88.071V7.608H84.039L76.487 26.232L68.935 7.608H64.967V31H68.935ZM97.3443 7.608H93.2483V31H97.3443V7.608ZM110.946 31C117.73 31 122.402 26.232 122.402 19.352C122.402 12.376 117.634 7.608 110.722 7.608H102.53V31H110.946ZM110.338 11.384C115.17 11.384 118.082 14.392 118.082 19.352C118.082 24.216 115.234 27.224 110.562 27.224H106.626V11.384H110.338Z" fill="#404040"/>
<path d="M14.84 22.936C19.512 22.936 22.584 19.768 22.584 15.256C22.584 10.68 19.544 7.608 14.84 7.608H5.592V31H9.688V22.936H14.84ZM14.04 11.256C16.76 11.256 18.296 12.664 18.296 15.224C18.296 17.784 16.792 19.288 13.976 19.288H9.688V11.256H14.04ZM31.6615 21.784V31H35.7575V21.784L43.6295 7.608H39.1815L34.6055 16.12C34.1895 16.888 34.0615 17.272 33.7735 17.848C33.5175 17.272 33.2935 16.76 32.9415 16.12L28.3335 7.608H23.7575L31.6615 21.784ZM50.6255 31V22.264H55.6495L59.6175 31H64.0975L59.6495 21.4C62.4015 20.28 63.8735 18.04 63.8735 14.904C63.8735 10.296 60.7695 7.608 55.4575 7.608H46.5295V31H50.6255ZM50.6255 11.256H55.4575C58.0495 11.256 59.5855 12.568 59.5855 14.904C59.5855 17.272 58.0495 18.648 55.4575 18.648H50.6255V11.256ZM71.935 31V22.616C71.935 19.704 71.903 17.496 71.679 16.088L77.599 31H81.375L87.327 16.056C87.103 17.72 87.103 19.096 87.103 23.8V31H91.071V7.608H87.039L79.487 26.232L71.935 7.608H67.967V31H71.935ZM100.344 7.608H96.2483V31H100.344V7.608ZM113.946 31C120.73 31 125.402 26.232 125.402 19.352C125.402 12.376 120.634 7.608 113.722 7.608H105.53V31H113.946ZM113.338 11.384C118.17 11.384 121.082 14.392 121.082 19.352C121.082 24.216 118.234 27.224 113.562 27.224H109.626V11.384H113.338Z" fill="#FF0000"/>
</svg>
